PathFileType	4	(X/Y/Z)	/Users/itak/Documents/Research/Walk-IL/dataset/trc/00084_00006.trc
DataRate	CameraRate	NumFrames	NumMarkers	Units	OrigDataRate	OrigDataStartFrame	OrigNumFrames
100.000000	100.000000	4	54	mm	100.000000	0	484
Frame#	Time	RPSI			LPSI			L3			STRN			T10			C7			CLAV			RBAK			LBAK			LSHO			LUPA			LAEL			LAOL			LWTS			LWPS			LFRA			LIFD			LHPS			LHTS			RSHO			RUPA			RAEL			RAOL			RWTS			RWPS			RFRA			RIFD			RHTS			RHPS			RBHD			LFHD			RFHD			LBHD			LHIP			RHIP			RASI			LASI			LKNE			LTHI			LANK			LTIP			LTOE			LMT1			LMT5			LHEE			RKNE			RTHI			RANK			RTIP			RTOE			RMT1			RMT5			RHEE			*53			
		X1	Y1	Z1	X2	Y2	Z2	X3	Y3	Z3	X4	Y4	Z4	X5	Y5	Z5	X6	Y6	Z6	X7	Y7	Z7	X8	Y8	Z8	X9	Y9	Z9	X10	Y10	Z10	X11	Y11	Z11	X12	Y12	Z12	X13	Y13	Z13	X14	Y14	Z14	X15	Y15	Z15	X16	Y16	Z16	X17	Y17	Z17	X18	Y18	Z18	X19	Y19	Z19	X20	Y20	Z20	X21	Y21	Z21	X22	Y22	Z22	X23	Y23	Z23	X24	Y24	Z24	X25	Y25	Z25	X26	Y26	Z26	X27	Y27	Z27	X28	Y28	Z28	X29	Y29	Z29	X30	Y30	Z30	X31	Y31	Z31	X32	Y32	Z32	X33	Y33	Z33	X34	Y34	Z34	X35	Y35	Z35	X36	Y36	Z36	X37	Y37	Z37	X38	Y38	Z38	X39	Y39	Z39	X40	Y40	Z40	X41	Y41	Z41	X42	Y42	Z42	X43	Y43	Z43	X44	Y44	Z44	X45	Y45	Z45	X46	Y46	Z46	X47	Y47	Z47	X48	Y48	Z48	X49	Y49	Z49	X50	Y50	Z50	X51	Y51	Z51	X52	Y52	Z52	X53	Y53	Z53	X54	Y54	Z54	

1	0	-1398.694946289062	1036.15283203125	487.8419189453125	-1409.592529296875	1029.169555664062	312.8811645507812	-1401.187866210938	1089.471801757812	392.3728942871094	-1154.123779296875	1286.000732421875	396.916259765625	-1421.733764648438	1222.671508789062	383.5189514160156	-1361.290161132812	1489.32275390625	383.4737548828125	-1183.632568359375	1401.140258789062	394.3078308105469	-1428.123168945312	1350.54541015625	455.5366821289062	-1378.801635742188	1452.419067382812	281.7055053710938	-1271.8701171875	1455.4169921875	213.4446411132812	-1286.5361328125	1328.441772460938	135.4976501464844	-1273.703369140625	1113.016479492188	117.0015182495117	-1340.904174804688	1100.436401367188	199.6492156982422	-1199.04345703125	867.0419311523438	178.5482330322266	-1254.801391601562	861.19091796875	115.8113403320312	-1258.124145507812	1003.392944335938	108.6766052246094	-1202.957641601562	680.0100708007812	195.1558074951172	-1228.622802734375	779.478759765625	119.9587173461914	-1182.00341796875	782.9529418945312	173.4929962158203	-1306.462646484375	1450.41748046875	561.8756103515625	-1321.372436523438	1380.878540039062	623.6089477539062	-1354.970825195312	1117.219482421875	652.885986328125	-1331.494018554688	1094.36572265625	557.8626098632812	-1211.93115234375	863.4346313476562	627.9087524414062	-1286.372802734375	850.177490234375	674.2720947265625	-1342.808959960938	1037.588134765625	661.4752807617188	-1211.7177734375	676.306884765625	611.6937255859375	-1189.031127929688	763.0210571289062	631.0288696289062	-1248.581176757812	761.218017578125	680.6964111328125	-1323.103149414062	1668.494140625	327.2403259277344	-1154.94775390625	1698.614868164062	459.5315856933594	-1147.998291015625	1702.806274414062	333.9383239746094	-1322.083129882812	1656.85205078125	465.0353088378906	-1306.601440429688	963.1915893554688	223.7918701171875	-1329.792114257812	964.2554931640625	562.8846435546875	-1205.909790039062	981.308837890625	540.3804931640625	-1192.187622070312	973.9583129882812	270.7793884277344	-1235.209350585938	501.8045654296875	286.7100219726562	-1267.7080078125	640.969970703125	247.1568298339844	-1367.93408203125	52.21146392822266	290.3640747070312	-1309.385131835938	263.9302368164062	275.1538696289062	-1161.092529296875	46.39937973022461	287.4913024902344	-1209.138549804688	44.64717483520508	343.6319885253906	-1266.251586914062	45.51298522949219	248.0437622070312	-1417.377319335938	50.90107727050781	367.14306640625	-1246.473510742188	520.718994140625	541.0027465820312	-1245.029174804688	790.9874267578125	571.1801147460938	-1355.64599609375	45.93305206298828	536.334228515625	-1271.058349609375	397.4179077148438	545.7815551757812	-1136.09521484375	43.69443511962891	510.9188842773438	-1195.90869140625	49.5694694519043	467.3739013671875	-1232.620971679688	48.85861206054688	557.9659423828125	-1399.184326171875	48.1080322265625	476.5316467285156	nan	nan	nan	
2	0.01	-1398.654541015625	1036.140014648438	487.8775329589844	-1409.65380859375	1029.152954101562	312.9229736328125	-1401.173095703125	1089.439331054688	392.4197692871094	-1154.013427734375	1285.94091796875	396.7948608398438	-1421.707763671875	1222.703247070312	383.5996398925781	-1361.245361328125	1489.312255859375	383.5199584960938	-1183.498901367188	1401.1103515625	394.2239379882812	-1427.999267578125	1350.56494140625	455.6571044921875	-1378.770263671875	1452.41259765625	281.7651062011719	-1271.874389648438	1455.429565429688	213.4582061767578	-1286.453979492188	1328.422729492188	135.518798828125	-1273.08984375	1113.019287109375	117.0603942871094	-1340.257080078125	1100.277099609375	199.6553955078125	-1197.216186523438	867.6386108398438	179.0116271972656	-1253.029541015625	861.2659912109375	116.3910903930664	-1257.086303710938	1003.418701171875	108.8623046875	-1200.57421875	680.5621337890625	195.8185577392578	-1226.325561523438	779.6006469726562	120.7192077636719	-1179.67578125	783.6195068359375	174.1628570556641	-1306.17822265625	1450.382446289062	561.912109375	-1321.033935546875	1380.73583984375	623.5753784179688	-1354.388916015625	1117.04931640625	652.8630981445312	-1331.107055664062	1094.294555664062	557.860107421875	-1211.22705078125	863.5450439453125	627.558349609375	-1285.514038085938	850.06787109375	673.9843139648438	-1342.257690429688	1037.484985351562	661.4673461914062	-1210.825805664062	676.3190307617188	611.024658203125	-1188.127197265625	763.0760498046875	630.4298095703125	-1247.532104492188	761.1574096679688	680.2516479492188	-1323.091674804688	1668.3759765625	327.464111328125	-1154.826782226562	1698.651611328125	459.5228881835938	-1148.001220703125	1702.855224609375	333.9190673828125	-1321.879760742188	1656.743530273438	465.2221374511719	-1306.592651367188	963.1760864257812	223.8520202636719	-1329.760864257812	964.223388671875	562.9171752929688	-1205.7568359375	981.2903442382812	540.3449096679688	-1192.206909179688	973.9577026367188	270.7388305664062	-1235.310180664062	501.8253173828125	286.6362915039062	-1267.784912109375	640.9694213867188	247.1177215576172	-1367.9345703125	52.20370864868164	290.3628234863281	-1309.431518554688	263.9406433105469	275.1294250488281	-1161.084228515625	46.39832305908203	287.4873962402344	-1209.15283203125	44.66024780273438	343.6271362304688	-1266.32177734375	45.55001831054688	247.9795379638672	-1417.379150390625	50.90181732177734	367.1505737304688	-1246.294677734375	520.7045288085938	540.9658203125	-1245.023315429688	790.9869384765625	571.1217651367188	-1355.649658203125	45.94384002685547	536.3289184570312	-1270.93798828125	397.381103515625	545.7501831054688	-1136.095458984375	43.69685745239258	510.9180908203125	-1195.893310546875	49.56147766113281	467.3551635742188	-1232.598266601562	48.87964248657227	557.94970703125	-1399.17236328125	48.11201095581055	476.5672607421875	nan	nan	nan	
3	0.02	-1398.60546875	1036.129150390625	487.9213256835938	-1409.732299804688	1029.1318359375	312.9767761230469	-1401.156982421875	1089.39990234375	392.479736328125	-1153.884887695312	1285.865966796875	396.6419677734375	-1421.666381835938	1222.740112304688	383.7034912109375	-1361.1748046875	1489.297241210938	383.576171875	-1183.3271484375	1401.068237304688	394.1119079589844	-1427.85302734375	1350.595947265625	455.7896423339844	-1378.728759765625	1452.404541015625	281.8326110839844	-1271.875732421875	1455.445190429688	213.4714660644531	-1286.349975585938	1328.396484375	135.5392456054688	-1272.317504882812	1113.0224609375	117.1349182128906	-1339.428344726562	1100.078979492188	199.6804962158203	-1194.9140625	868.3947143554688	179.6088562011719	-1250.79052734375	861.365234375	117.1330490112305	-1255.7744140625	1003.458618164062	109.1083755493164	-1197.36376953125	681.2813110351562	196.778564453125	-1223.42529296875	779.7896728515625	121.6892852783203	-1176.716796875	784.4765014648438	175.020751953125	-1305.844482421875	1450.341552734375	561.9531860351562	-1320.6044921875	1380.575927734375	623.5390014648438	-1353.672119140625	1116.852661132812	652.84228515625	-1330.61474609375	1094.201293945312	557.8467407226562	-1210.295288085938	863.6638793945312	627.1036987304688	-1284.428100585938	849.9444580078125	673.620361328125	-1341.539672851562	1037.3486328125	661.4232788085938	-1209.6630859375	676.355712890625	610.22314453125	-1186.984741210938	763.1553344726562	629.690673828125	-1246.210815429688	761.1000366210938	679.7037353515625	-1323.083862304688	1668.244750976562	327.7433776855469	-1154.681030273438	1698.694580078125	459.5243530273438	-1148.012329101562	1702.92822265625	333.9076538085938	-1321.636108398438	1656.612426757812	465.4476623535156	-1306.6142578125	963.1602172851562	223.9087524414062	-1329.72021484375	964.184814453125	562.9661254882812	-1205.579956054688	981.27001953125	540.2938232421875	-1192.239990234375	973.9558715820312	270.6846008300781	-1235.425903320312	501.847412109375	286.5505065917969	-1267.87255859375	640.9671020507812	247.0770263671875	-1367.935668945312	52.19604873657227	290.3612976074219	-1309.482543945312	263.9523620605469	275.1017761230469	-1161.076416015625	46.39760589599609	287.4838562011719	-1209.16650390625	44.67367553710938	343.6218872070312	-1266.387939453125	45.58369064331055	247.9187469482422	-1417.379638671875	50.90378570556641	367.158447265625	-1246.062133789062	520.6739501953125	540.9161376953125	-1244.979248046875	790.972900390625	571.05322265625	-1355.648315429688	45.95382690429688	536.3229370117188	-1270.77783203125	397.3413391113281	545.7086791992188	-1136.093872070312	43.69822311401367	510.9152221679688	-1195.873901367188	49.55498123168945	467.3334350585938	-1232.574462890625	48.90335083007812	557.9297485351562	-1399.1611328125	48.11141967773438	476.58740234375	nan	nan	nan	
4	0.03	-1398.55029296875	1036.123413085938	487.9710388183594	-1409.824951171875	1029.107543945312	313.0411987304688	-1401.141235351562	1089.356689453125	392.5511779785156	-1153.747680664062	1285.779174804688	396.4645080566406	-1421.6064453125	1222.77880859375	383.827392578125	-1361.074096679688	1489.278564453125	383.6387939453125	-1183.123046875	1401.013427734375	393.9740905761719	-1427.693237304688	1350.638549804688	455.9217224121094	-1378.677490234375	1452.395385742188	281.9021606445312	-1271.871948242188	1455.463623046875	213.4823455810547	-1286.22607421875	1328.3642578125	135.5562286376953	-1271.41943359375	1113.026245117188	117.2217102050781	-1338.445068359375	1099.851196289062	199.7306518554688	-1192.228759765625	869.2813720703125	180.3236846923828	-1248.169555664062	861.4884033203125	118.0137023925781	-1254.238403320312	1003.514770507812	109.4107818603516	-1193.3779296875	682.160888671875	198.0408935546875	-1220.03662109375	780.0551147460938	122.8357543945312	-1173.240844726562	785.4977416992188	176.0339508056641	-1305.485229492188	1450.298095703125	561.9949951171875	-1320.101318359375	1380.412719726562	623.5040893554688	-1352.854736328125	1116.646362304688	652.827392578125	-1330.041137695312	1094.091552734375	557.816650390625	-1209.162231445312	863.7823486328125	626.5570678710938	-1283.154174804688	849.8189086914062	673.1929321289062	-1340.67724609375	1037.184204101562	661.3380126953125	-1208.270141601562	676.4217529296875	609.3291015625	-1185.647583007812	763.259033203125	628.8516235351562	-1244.677856445312	761.0496215820312	679.0772705078125	-1323.080200195312	1668.113037109375	328.064453125	-1154.51904296875	1698.739990234375	459.5420227050781	-1148.033813476562	1703.027099609375	333.9120178222656	-1321.368408203125	1656.466186523438	465.6989440917969	-1306.677368164062	963.1460571289062	223.9533996582031	-1329.668212890625	964.1430053710938	563.029296875	-1205.394897460938	981.248779296875	540.2271728515625	-1192.290161132812	973.9522705078125	270.6168518066406	-1235.545166015625	501.8685607910156	286.4599609375	-1267.95166015625	640.9602661132812	247.0482025146484	-1367.937133789062	52.18945693969727	290.3602905273438	-1309.532104492188	263.9642639160156	275.073486328125	-1161.069580078125	46.39725494384766	287.4812316894531	-1209.177001953125	44.68540954589844	343.6170349121094	-1266.44189453125	45.61021423339844	247.8683929443359	-1417.378051757812	50.90752029418945	367.1664428710938	-1245.781982421875	520.6235961914062	540.8546142578125	-1244.890258789062	790.9437255859375	570.9797973632812	-1355.639892578125	45.9622688293457	536.316650390625	-1270.582641601562	397.3023071289062	545.6593017578125	-1136.089965820312	43.69803619384766	510.9096984863281	-1195.851196289062	49.55109786987305	467.3100891113281	-1232.552001953125	48.92801666259766	557.90771484375	-1399.151245117188	48.10739898681641	476.5865783691406	nan	nan	nan	
